<svg width="512" height="209" viewBox="0 0 512 209" fill="none" xmlns="http://www.w3.org/2000/svg">
<path d="M167.834 70.0215C169.299 63.9644 165.576 57.866 159.519 56.4005C153.461 54.9351 147.363 58.6576 145.898 64.715L142.887 77.1585H128C121.768 77.1585 116.716 82.2104 116.716 88.4427C116.716 94.675 121.768 99.7269 128 99.7269H137.428L129.45 132.703H114.526C108.294 132.703 103.242 137.755 103.242 143.987C103.242 150.22 108.294 155.271 114.526 155.271H123.99L121.45 165.767C119.985 171.825 123.708 177.923 129.765 179.389C135.823 180.854 141.921 177.132 143.386 171.074L147.209 155.271H177.885L175.346 165.767C173.881 171.825 177.603 177.923 183.66 179.389C189.718 180.854 195.816 177.132 197.282 171.074L201.104 155.271H215.579C221.811 155.271 226.863 150.22 226.863 143.987C226.863 137.755 221.811 132.703 215.579 132.703H206.564L214.542 99.7269H229.053C235.285 99.7269 240.337 94.675 240.337 88.4427C240.337 82.2104 235.285 77.1585 229.053 77.1585H220.002L221.728 70.0215C223.194 63.9644 219.471 57.866 213.414 56.4005C207.357 54.9351 201.258 58.6576 199.793 64.715L196.783 77.1585H166.107L167.834 70.0215ZM183.345 132.703H170.552L156.894 115.242L160.647 99.7269H173.096L187.084 117.247L183.345 132.703Z" fill="#715AFF" stroke="white" stroke-width="2.35789" stroke-linecap="round"/>
<path d="M61.8158 55.5066C69.3989 55.5066 76.3554 56.7039 82.684 59.0987C91.6359 62.4627 96.1119 67.5375 96.1119 74.3222C96.1119 77.3443 95.2563 79.9953 93.5458 82.2764C91.5503 84.8424 88.7849 86.1251 85.25 86.1251C83.1401 86.1251 79.8619 85.2413 75.4143 83.4735C70.5678 81.5353 65.8925 80.5659 61.3881 80.5659C53.3487 80.5659 46.8772 82.9891 41.9737 87.8356C35.2456 94.5064 31.8816 104.313 31.8816 117.257C31.8816 129.971 35.1886 139.436 41.8027 145.651C46.9912 150.498 53.5483 152.921 61.4737 152.921C66.0351 152.921 69.6273 152.323 72.25 151.125L80.2042 147.618C82.3135 146.706 84.3379 146.25 86.2761 146.25C89.3555 146.25 91.9781 147.59 94.1447 150.27C96.0836 152.55 97.0523 155.259 97.0523 158.395C97.0523 163.754 94.2875 168.088 88.7566 171.395C81.344 175.842 72.25 178.066 61.4737 178.066C45.1096 178.066 31.682 173.048 21.1908 163.013C9.2171 151.495 3.23029 136.187 3.23029 117.086C3.23029 107.678 4.74125 98.9824 7.76316 90.9999C10.8422 83.0174 15.1754 76.3749 20.7632 71.0723C31.7675 60.6952 45.4517 55.5066 61.8158 55.5066Z" fill="white"/>
<path d="M245.605 155.23V77.8288C245.605 74.2367 245.72 71.6996 245.947 70.2175C246.632 66.511 248.513 63.4891 251.592 61.1514C254.101 59.3269 257.522 58.4146 261.855 58.4146H265.106H287C302.338 58.4146 314.825 61.9496 324.46 69.0197C331.873 74.4368 337.403 81.7065 341.053 90.8289C344.36 99.2108 346.013 108.105 346.013 117.513C346.013 127.206 344.302 136.072 340.882 144.112C337.461 152.094 332.557 158.68 326.171 163.868C316.592 171.623 304.875 175.386 291.019 175.158L264.849 174.73C260.287 174.73 256.837 174.331 254.5 173.533C252.904 172.963 251.335 171.908 249.796 170.369C248.313 168.829 247.287 167.261 246.717 165.664C245.919 163.27 245.548 159.792 245.605 155.23ZM272.461 151.809H285.802C295.553 151.809 302.965 149.215 308.039 144.026C314.254 137.64 317.362 128.517 317.362 116.658C317.362 104.513 313.827 95.2765 306.757 88.9473C303.336 85.8685 299.43 83.8731 295.039 82.9609C291.333 82.1626 287.228 81.7631 282.724 81.7631H272.461V151.809ZM383.987 82.362V104.599H406.309C410.871 104.599 414.206 105.141 416.316 106.224C418.083 107.079 419.509 108.476 420.592 110.414C421.732 112.353 422.302 114.406 422.302 116.572C422.302 118.739 421.732 120.792 420.592 122.731C419.509 124.669 418.083 126.066 416.316 126.921C414.206 128.005 410.871 128.546 406.309 128.546H383.987V151.211H409.046C413.55 151.211 416.858 151.752 418.967 152.835C420.735 153.691 422.16 155.088 423.243 157.026C424.384 158.965 424.954 161.017 424.954 163.185C424.954 165.351 424.384 167.404 423.243 169.342C422.16 171.281 420.735 172.677 418.967 173.533C416.858 174.616 413.55 175.158 409.046 175.158H376.631C372.013 175.215 368.507 174.845 366.112 174.046C364.515 173.476 362.947 172.421 361.408 170.881C359.869 169.342 358.814 167.774 358.244 166.178C357.445 163.783 357.075 160.276 357.131 155.658V77.9143C357.131 74.2657 357.245 71.6996 357.474 70.2175C358.101 66.568 359.982 63.5461 363.118 61.1514C365.627 59.3269 369.048 58.4146 373.381 58.4146H376.631H409.046C413.55 58.4146 416.858 58.9562 418.967 60.0395C420.735 60.8948 422.16 62.2917 423.243 64.2303C424.384 66.1689 424.954 68.2214 424.954 70.3879C424.954 72.5552 424.384 74.6072 423.243 76.5461C422.16 78.4849 420.735 79.8815 418.967 80.7371C416.858 81.8204 413.55 82.362 409.046 82.362H383.987ZM464.724 82.362V104.599H487.046C491.608 104.599 494.943 105.141 497.052 106.224C498.82 107.079 500.246 108.476 501.329 110.414C502.469 112.353 503.039 114.406 503.039 116.572C503.039 118.739 502.469 120.792 501.329 122.731C500.246 124.669 498.82 126.066 497.052 126.921C494.943 128.005 491.608 128.546 487.046 128.546H464.724V151.211H489.783C494.288 151.211 497.595 151.752 499.704 152.835C501.472 153.691 502.897 155.088 503.98 157.026C505.12 158.965 505.691 161.017 505.691 163.185C505.691 165.351 505.12 167.404 503.98 169.342C502.897 171.281 501.472 172.677 499.704 173.533C497.595 174.616 494.288 175.158 489.783 175.158H457.368C452.75 175.215 449.244 174.845 446.849 174.046C445.252 173.476 443.684 172.421 442.145 170.881C440.605 169.342 439.551 167.774 438.98 166.178C438.182 163.783 437.811 160.276 437.868 155.658V77.9143C437.868 74.2657 437.982 71.6996 438.211 70.2175C438.838 66.568 440.72 63.5461 443.856 61.1514C446.364 59.3269 449.785 58.4146 454.118 58.4146H457.368H489.783C494.288 58.4146 497.595 58.9562 499.704 60.0395C501.472 60.8948 502.897 62.2917 503.98 64.2303C505.12 66.1689 505.691 68.2214 505.691 70.3879C505.691 72.5552 505.12 74.6072 503.98 76.5461C502.897 78.4849 501.472 79.8815 499.704 80.7371C497.595 81.8204 494.288 82.362 489.783 82.362H464.724Z" fill="white"/>
</svg>
