<svg id="Layer_1" data-name="Layer 1" xmlns="http://www.w3.org/2000/svg" viewBox="0 0 122.88 122.88"><defs><style>.cls-1{fill:#ffcb05;}.cls-2{fill:#00678f;}.cls-3{fill:#fff;}.cls-4{fill:#ed1d24;}</style></defs><title>mtn-mobile</title><polygon class="cls-1" points="0 122.88 122.88 122.88 122.88 0 0 0 0 122.88 0 122.88"/><path class="cls-2" d="M119,61.09c0,13.11-25.78,23.75-57.58,23.75S3.85,74.2,3.85,61.09s25.79-23.75,57.6-23.75S119,48,119,61.09Z"/><polygon class="cls-3" points="24.55 72.81 30.5 49.06 40.02 49.06 40.02 62.89 46.27 49.06 56.1 49.06 50.15 72.81 43.89 72.81 47.46 57.48 40.02 72.81 34.97 72.81 34.97 57.48 31.09 72.81 24.55 72.81 24.55 72.81"/><polygon class="cls-4" points="58.02 73.11 58.91 69.8 65.76 69.8 64.86 73.11 58.02 73.11 58.02 73.11"/><polygon class="cls-3" points="73.34 72.81 79.29 49.06 86.14 49.06 89.12 61.69 92.39 49.06 98.64 49.06 92.69 72.81 86.14 72.81 82.87 59.88 79.59 72.81 73.34 72.81 73.34 72.81"/><polygon class="cls-1" points="58.02 49.06 56.53 55.08 62.79 55.08 59.42 68.12 66.26 68.12 69.64 55.08 75.88 55.08 77.37 49.06 58.02 49.06 58.02 49.06"/></svg>